<?xml version="1.0" encoding="UTF-8"?>
<svg width="209mm" height="199mm" inkscape:version="1.4.3 (0d15f75042, 2025-12-25)" sodipodi:docname="shopping_bag.svg" version="1.1" viewBox="0 0 209 199" xml:space="preserve" xmlns="http://www.w3.org/2000/svg" xmlns:inkscape="http://www.inkscape.org/namespaces/inkscape" xmlns:sodipodi="http://sodipodi.sourceforge.net/DTD/sodipodi-0.dtd"><sodipodi:namedview bordercolor="#000000" borderopacity="0.25" inkscape:current-layer="svg18" inkscape:cx="407.25806" inkscape:cy="379.03226" inkscape:deskcolor="#d1d1d1" inkscape:document-units="mm" inkscape:pagecheckerboard="true" inkscape:pageopacity="0.0" inkscape:showpageshadow="2" inkscape:window-height="718" inkscape:window-maximized="1" inkscape:window-width="1280" inkscape:window-x="0" inkscape:window-y="0" inkscape:zoom="0.62" pagecolor="#1d1d1d" showgrid="false"/><path transform="matrix(.94586 0 0 1.0008 6.6815 8.0243)" d="m70.234 23.826h67.784c26.102 3e-6 51.405 21.614 52.676 47.688l4.5118 92.537c0.47923 9.8293-19.707 21.619-29.547 21.654l-120.08 0.4264c-11.961 0.0425-33.267-12.704-32.485-24.642l5.8653-89.549c1.7372-26.523 24.7-48.115 51.274-48.115z" fill="none" stroke="#fff" stroke-linecap="square" stroke-miterlimit="1.2" stroke-width="7.5554" style="mix-blend-mode:normal" inkscape:label="bag" sodipodi:nodetypes="sssssssss"/><path d="m102.28 3.376c-14.553 0-26.358 13.624-26.358 30.421v23.203a5.3343 5.3343 0 0 0-2.0955 4.2385 5.3343 5.3343 0 0 0 5.334 5.3346 5.3343 5.3343 0 0 0 5.3346-5.3346 5.3343 5.3343 0 0 0-2.9006-4.7465v-22.695c0-13.284 9.1757-23.874 20.685-23.874h8.384c11.509 0 20.687 10.59 20.687 23.874v22.963a5.3343 5.3343 0 0 0-2.1797 4.3021 5.3343 5.3343 0 0 0 5.334 5.334 5.3343 5.3343 0 0 0 5.3346-5.334 5.3343 5.3343 0 0 0-2.8153-4.702v-22.563c0-16.797-11.807-30.421-26.36-30.421h-8.384z" fill="#fff" fill-rule="evenodd" stop-color="#000000" stroke-linecap="square" stroke-miterlimit="1.2" stroke-width="1.1726" inkscape:label="handle"/></svg>
